<svg width="3982" height="890" xmlns="http://www.w3.org/2000/svg" xmlns:xlink="http://www.w3.org/1999/xlink" overflow="hidden"><defs><clipPath id="clip0"><rect x="137" y="983" width="3982" height="890"/></clipPath><clipPath id="clip1"><rect x="420" y="1624" width="545" height="122"/></clipPath><clipPath id="clip2"><rect x="420" y="1624" width="545" height="122"/></clipPath><clipPath id="clip3"><rect x="420" y="1624" width="545" height="122"/></clipPath><clipPath id="clip4"><rect x="614" y="990" width="455" height="694"/></clipPath><clipPath id="clip5"><rect x="614" y="1124" width="455" height="694"/></clipPath><clipPath id="clip6"><rect x="1958" y="1414" width="253" height="254"/></clipPath><clipPath id="clip7"><rect x="1958" y="1414" width="253" height="254"/></clipPath><clipPath id="clip8"><rect x="1958" y="1414" width="253" height="254"/></clipPath><clipPath id="clip9"><rect x="1575" y="1247" width="221" height="221"/></clipPath><clipPath id="clip10"><rect x="1575" y="1247" width="221" height="221"/></clipPath><clipPath id="clip11"><rect x="1575" y="1247" width="221" height="221"/></clipPath><clipPath id="clip12"><rect x="2338" y="1245" width="221" height="221"/></clipPath><clipPath id="clip13"><rect x="2338" y="1245" width="221" height="221"/></clipPath><clipPath id="clip14"><rect x="2338" y="1245" width="221" height="221"/></clipPath><clipPath id="clip15"><rect x="258" y="1273" width="274" height="272"/></clipPath><clipPath id="clip16"><rect x="258" y="1273" width="274" height="272"/></clipPath><clipPath id="clip17"><rect x="258" y="1273" width="274" height="272"/></clipPath><clipPath id="clip18"><rect x="3069" y="1062" width="201" height="135"/></clipPath><clipPath id="clip19"><rect x="3069" y="1062" width="201" height="135"/></clipPath><clipPath id="clip20"><rect x="3069" y="1031" width="201" height="200"/></clipPath><linearGradient x1="99.4195" y1="123.351" x2="99.4195" y2="79.5179" gradientUnits="userSpaceOnUse" spreadMethod="pad" id="fill21"><stop offset="0" stop-color="#29BADE"/><stop offset="1" stop-color="#50E6FF"/></linearGradient><linearGradient x1="71.3911" y1="161.916" x2="71.3911" y2="37.3014" gradientUnits="userSpaceOnUse" spreadMethod="pad" id="fill22"><stop offset="0" stop-color="#32BEDD"/><stop offset="0.041" stop-color="#32BEDD"/><stop offset="0.495" stop-color="#50E6FF"/><stop offset="0.92" stop-color="#C3F1FF"/><stop offset="1" stop-color="#C3F1FF"/></linearGradient><linearGradient x1="82.6632" y1="111.27" x2="82.6632" y2="2.81303" gradientUnits="userSpaceOnUse" spreadMethod="pad" id="fill23"><stop offset="0" stop-color="#0078D4"/><stop offset="0.244" stop-color="#0078D4"/><stop offset="0.6" stop-color="#2E8CE1"/><stop offset="0.933" stop-color="#589EED"/><stop offset="1" stop-color="#589EED"/></linearGradient><linearGradient x1="150.932" y1="161.982" x2="150.932" y2="46.4371" gradientUnits="userSpaceOnUse" spreadMethod="pad" id="fill24"><stop offset="0" stop-color="#005BA1"/><stop offset="0.399" stop-color="#0078D4"/><stop offset="0.857" stop-color="#5EA0EF"/><stop offset="1" stop-color="#5EA0EF"/></linearGradient></defs><g clip-path="url(#clip0)" transform="translate(-137 -983)"><path d="M2977 1044.25C2977 1012.08 3003.08 986 3035.25 986L4057.75 986C4089.92 986 4116 1012.08 4116 1044.25L4116 1811.75C4116 1843.92 4089.92 1870 4057.75 1870L3035.25 1870C3003.08 1870 2977 1843.92 2977 1811.75Z" stroke="#8FAADC" stroke-width="5.72917" stroke-miterlimit="8" fill="none" fill-rule="evenodd"/><text fill="#8FAADC" font-family="Segoe UI Semibold,Segoe UI Semibold_MSFontService,sans-serif" font-weight="600" font-size="92" transform="matrix(1 0 0 1 3303.1 1162)">Microsoft Purview</text><rect x="0" y="0" width="1055" height="274" fill="#003C6A" transform="matrix(1 0 0 -1 3032 1609)"/><text fill="#FFFFFF" font-family="Segoe UI Semibold,Segoe UI Semibold_MSFontService,sans-serif" font-weight="600" font-size="73" transform="matrix(1 0 0 1 3646.9 1494)">Platform</text><rect x="3014" y="1318" width="1080" height="301" stroke="#000000" stroke-width="2.29167" stroke-miterlimit="8" fill="none"/><rect x="3063" y="1362" width="446" height="217" stroke="#FFFFFF" stroke-width="2.29167" stroke-miterlimit="8" fill="#003C6A"/><text fill="#FFFFFF" font-family="Segoe UI Semibold,Segoe UI Semibold_MSFontService,sans-serif" font-weight="600" font-size="64" transform="matrix(1 0 0 1 3178.24 1455)">Apache <tspan font-size="64" x="-21.6335" y="77">Atlas API</tspan></text><g clip-path="url(#clip1)"><g clip-path="url(#clip2)"><g clip-path="url(#clip3)"><path d="M507.029 0 205.72 0 205.72 51.5895 205.72 103.194 510.035 103.194 545 51.5895 507.029 0Z" fill="#74A4BC" transform="matrix(1 0 0 1.17213 420 1625.02)"/><path d="M252.831 73.6191C253.29 74.063 253.539 74.6814 253.514 75.3195 253.557 76.6101 252.546 77.6908 251.255 77.7335 251.204 77.7352 251.152 77.7352 251.1 77.7335L222.254 77.7335C220.947 77.7673 219.858 76.7346 219.825 75.427 219.825 75.3912 219.825 75.3553 219.825 75.3195L219.825 23.6996C219.808 23.0446 220.072 22.4141 220.554 21.9688 221.058 21.5074 221.723 21.2622 222.406 21.2856 223.065 21.2674 223.705 21.5134 224.182 21.9688 224.663 22.4141 224.928 23.0446 224.911 23.6996L224.911 72.9814 251.055 72.9814C251.708 72.9476 252.348 73.1773 252.831 73.6191Z" fill="#FFFFFF" transform="matrix(1 0 0 1.17213 420 1625.02)"/><path d="M261.333 29.6207C260.72 29.053 260.397 28.2381 260.453 27.4041L260.453 26.5994C260.394 25.7556 260.737 24.9335 261.379 24.3828 262.106 23.8332 263.005 23.5589 263.914 23.6085 266.07 23.6085 267.148 24.6105 267.148 26.645L267.148 27.4496C267.2 28.2769 266.89 29.0858 266.298 29.6663 265.604 30.2219 264.725 30.4932 263.838 30.4254 262.934 30.4741 262.041 30.1878 261.333 29.6207ZM265.569 77.0503C264.64 78.0065 263.111 78.0283 262.156 77.0993 261.676 76.6331 261.411 75.9884 261.424 75.3195L261.424 38.2139C261.406 37.5633 261.652 36.9331 262.108 36.4679 263.082 35.5578 264.594 35.5578 265.569 36.4679 266.025 36.9331 266.271 37.5633 266.252 38.2139L266.252 75.3195C266.274 75.9661 266.026 76.5927 265.569 77.0503Z" fill="#FFFFFF" transform="matrix(1 0 0 1.17213 420 1625.02)"/><path d="M309.294 39.9447C311.754 43.3241 312.976 47.4463 312.756 51.6199L312.756 75.3195C312.773 75.9745 312.508 76.605 312.027 77.0503 311.066 77.9641 309.557 77.9641 308.596 77.0503 308.139 76.5927 307.891 75.9661 307.913 75.3195L307.913 51.8476C308.055 48.7917 307.132 45.7814 305.301 43.3303 303.258 41.0337 300.258 39.8258 297.194 40.0661 292.603 40.0851 288.293 42.2825 285.579 45.9873 284.316 47.6801 283.635 49.7358 283.636 51.8476L283.636 75.3195C283.679 76.6101 282.668 77.6908 281.377 77.7335 281.325 77.7352 281.274 77.7352 281.222 77.7335 280.571 77.7538 279.941 77.507 279.476 77.0503 279.019 76.5927 278.772 75.9661 278.793 75.3195L278.793 39.1704C278.772 38.5238 279.019 37.8972 279.476 37.4396 279.941 36.9829 280.571 36.7361 281.222 36.7564 282.513 36.7137 283.594 37.7255 283.636 39.016 283.638 39.0675 283.638 39.1189 283.636 39.1704L283.636 43.6188C285.201 41.1987 287.353 39.2141 289.891 37.8495 292.425 36.3632 295.304 35.5675 298.242 35.5418 303.262 35.5418 306.946 37.0095 309.294 39.9447Z" fill="#FFFFFF" transform="matrix(1 0 0 1.17213 420 1625.02)"/><path d="M359.593 56.4023C359.138 56.8434 358.527 57.0886 357.893 57.0855L327.407 57.0855C327.352 60.0925 328.029 63.0677 329.38 65.7546 330.659 68.2672 332.614 70.3711 335.028 71.8276 337.658 73.3522 340.658 74.1193 343.697 74.0442 346.136 74.0893 348.547 73.5257 350.712 72.4045 352.611 71.4231 354.267 70.0274 355.555 68.3204 356.024 67.896 356.624 67.6442 357.255 67.6069 357.803 67.6134 358.324 67.8439 358.698 68.2445 359.118 68.6365 359.355 69.1875 359.35 69.7628 359.322 70.4138 359.025 71.024 358.531 71.448 356.756 73.6048 354.547 75.3635 352.048 76.61 349.494 77.9441 346.655 78.6371 343.773 78.6292 339.946 78.6912 336.167 77.7546 332.812 75.9116 329.678 74.176 327.105 71.5854 325.388 68.4419 323.563 65.038 322.647 61.2203 322.731 57.3588 322.638 53.3417 323.535 49.3635 325.342 45.7747 326.925 42.6485 329.343 40.0212 332.326 38.1835 335.113 36.4613 338.326 35.5468 341.602 35.5418 344.78 35.5225 347.912 36.3003 350.712 37.804 353.572 39.3441 355.959 41.6321 357.62 44.4235 359.457 47.5504 360.403 51.121 360.352 54.7475 360.345 55.3815 360.069 55.9825 359.593 56.4023ZM332.933 43.4518C330.146 45.8127 328.321 49.1127 327.802 52.7282L355.266 52.7282 355.266 52.0905C355.045 49.7973 354.21 47.6057 352.852 45.7443 351.533 43.9794 349.796 42.5706 347.797 41.6451 345.861 40.7242 343.746 40.2421 341.602 40.2332 338.423 40.2479 335.352 41.3882 332.933 43.4518Z" fill="#FFFFFF" transform="matrix(1 0 0 1.17213 420 1625.02)"/><path d="M405.854 37.2422C406.306 37.7214 406.552 38.3597 406.537 39.0186L406.537 75.3195C406.558 75.9661 406.311 76.5927 405.854 77.0503 405.389 77.5055 404.758 77.752 404.108 77.7335 402.817 77.7762 401.736 76.7644 401.694 75.4739 401.692 75.4224 401.692 75.371 401.694 75.3195L401.694 69.9146C400.224 72.4268 398.134 74.5183 395.621 75.9875 392.984 77.6306 389.937 78.4937 386.83 78.4774 383.382 78.5204 380.001 77.5375 377.114 75.6535 374.203 73.727 371.864 71.0525 370.342 67.9105 368.663 64.4714 367.821 60.6844 367.883 56.8578 367.849 53.0561 368.73 49.3022 370.449 45.9113 371.985 42.8111 374.337 40.1872 377.25 38.3202 382.85 34.8425 389.903 34.7027 395.636 37.9558 398.193 39.3664 400.299 41.4719 401.709 44.0287L401.709 39.0186C401.694 38.3597 401.94 37.7214 402.392 37.2422 402.837 36.7617 403.469 36.4962 404.123 36.5135 404.777 36.5019 405.406 36.7666 405.854 37.2422ZM394.877 71.8124C397.141 70.2998 398.95 68.2008 400.115 65.7395 401.411 63.0036 402.06 60.0062 402.013 56.9793 402.052 54.0213 401.402 51.0947 400.115 48.4316 398.944 45.9743 397.136 43.8769 394.877 42.3587 392.627 40.8732 389.982 40.1008 387.286 40.1421 384.597 40.103 381.957 40.8582 379.695 42.3131 377.426 43.8198 375.614 45.9205 374.457 48.3861 373.16 51.0896 372.512 54.0574 372.559 57.0552 372.517 60.0768 373.15 63.0696 374.411 65.8154 375.559 68.2775 377.361 70.378 379.619 71.8883 384.246 74.852 390.174 74.852 394.801 71.8883Z" fill="#FFFFFF" transform="matrix(1 0 0 1.17213 420 1625.02)"/><path d="M455.773 37.1967C456.242 37.6842 456.488 38.3431 456.457 39.0186L456.457 73.9379C456.567 77.7002 455.666 81.4232 453.845 84.7174 452.16 87.6356 449.665 90.0032 446.664 91.5342 443.418 93.1325 439.836 93.9339 436.219 93.8723 434.219 93.8579 432.227 93.6133 430.282 93.1435 428.445 92.7362 426.661 92.1145 424.968 91.2913 423.45 90.5322 422.63 89.7731 422.418 88.9532 422.059 88.6198 421.856 88.1522 421.856 87.6627 421.858 87.1351 422.134 86.6466 422.585 86.3722 422.819 86.2026 423.101 86.117 423.389 86.1293 424.033 86.2163 424.659 86.4059 425.242 86.6911L426.942 87.4198C429.913 88.6356 433.085 89.2894 436.294 89.348 440.444 89.5886 444.51 88.1179 447.544 85.2791 450.358 82.3249 451.834 78.3456 451.629 74.2719L451.629 69.2617C450.289 72.1591 448.053 74.5491 445.252 76.0786 442.484 77.6841 439.343 78.5325 436.143 78.5382 432.596 78.5852 429.11 77.6214 426.092 75.7598 423.09 73.8744 420.652 71.2156 419.032 68.0624 417.282 64.6444 416.395 60.8494 416.451 57.0096 416.401 53.1946 417.286 49.4254 419.032 46.0328 420.652 42.8796 423.09 40.2207 426.092 38.3354 429.077 36.471 432.532 35.5016 436.051 35.5418 439.335 35.5133 442.562 36.3963 445.373 38.0924 447.951 39.5383 450.107 41.6314 451.629 44.1654L451.629 39.0186C451.613 38.3597 451.859 37.7214 452.312 37.2422 452.757 36.7617 453.388 36.4962 454.043 36.5135 454.689 36.4919 455.316 36.7392 455.773 37.1967ZM444.478 71.8883C446.852 70.4309 448.761 68.3233 449.974 65.8154 451.317 63.0716 451.993 60.0491 451.947 56.9944 451.996 53.9492 451.319 50.9361 449.974 48.2039 448.758 45.6977 446.851 43.5909 444.478 42.1309 442.083 40.6879 439.332 39.9461 436.537 39.9902 433.757 39.9582 431.028 40.7278 428.673 42.2069 426.329 43.6968 424.435 45.7961 423.192 48.2798 421.851 50.9595 421.174 53.9223 421.218 56.9185 421.17 59.9346 421.847 62.9184 423.192 65.618 424.437 68.1005 426.33 70.1991 428.673 71.6909 431.028 73.17 433.757 73.9396 436.537 73.9075 439.32 73.9883 442.071 73.2889 444.478 71.8883Z" fill="#FFFFFF" transform="matrix(1 0 0 1.17213 420 1625.02)"/><path d="M501.715 56.4023C501.261 56.8461 500.649 57.0918 500.015 57.0855L469.529 57.0855C469.474 60.0925 470.151 63.0677 471.502 65.7546 472.781 68.2672 474.736 70.3711 477.15 71.8276 479.786 73.3481 482.792 74.1099 485.834 74.029 488.245 74.068 490.629 73.5099 492.773 72.4045 494.699 71.4389 496.378 70.0412 497.677 68.3204 498.147 67.8979 498.745 67.6467 499.377 67.6069 499.949 67.5997 500.499 67.8307 500.895 68.2445 501.313 68.6381 501.543 69.1895 501.533 69.7628 501.505 70.4106 501.214 71.0191 500.728 71.448 498.947 73.6051 496.734 75.3638 494.23 76.61 491.683 77.9441 488.846 78.6371 485.971 78.6292 482.118 78.7017 478.313 77.7648 474.933 75.9116 471.801 74.176 469.226 71.5854 467.509 68.4419 465.684 65.038 464.769 61.2203 464.852 57.3588 464.764 53.3405 465.666 49.3623 467.479 45.7747 469.056 42.6496 471.469 40.0221 474.448 38.1835 477.237 36.4667 480.449 35.5575 483.724 35.557 486.902 35.5383 490.034 36.3161 492.833 37.8192 495.689 39.3596 498.071 41.6478 499.726 44.4387 501.562 47.5671 502.512 51.1357 502.474 54.7626 502.468 55.3927 502.192 55.9895 501.715 56.4023ZM475.055 43.4518C472.272 45.8142 470.452 49.1145 469.938 52.7282L497.449 52.7282 497.449 52.0905C497.229 49.7944 496.389 47.6011 495.02 45.7443 493.706 43.98 491.974 42.5711 489.979 41.6451 488.024 40.7179 485.887 40.2356 483.724 40.2332 480.545 40.2505 477.475 41.3905 475.055 43.4518Z" fill="#FFFFFF" transform="matrix(1 0 0 1.17213 420 1625.02)"/><path d="M50.5723 64.4186C46.0852 73.2561 36.9337 78.7434 27.0245 78.5382 17.1153 78.7434 7.96389 73.2561 3.47675 64.4186 1.109 59.8106-0.0852149 54.6896 1.75196e-06 49.5096-0.0920938 44.2949 1.10201 39.1377 3.47675 34.4942 5.6554 30.2294 8.97769 26.6547 13.072 24.1703 17.2878 21.6617 22.1197 20.3788 27.0245 20.4658 31.9343 20.3776 36.7714 21.6605 40.9923 24.1703 45.0866 26.6547 48.4088 30.2294 50.5875 34.4942 52.9623 39.1377 54.1564 44.2949 54.0643 49.5096 54.1447 54.6908 52.9453 59.812 50.5723 64.4186ZM46.0176 36.9538C42.5063 29.6939 35.0873 25.1453 27.0245 25.3089 18.9292 25.1091 11.4654 29.6635 7.94035 36.9538 6.03751 40.8615 5.08549 45.1638 5.16199 49.5096 5.08732 53.8502 6.0393 58.1472 7.94035 62.0501 9.67334 65.5779 12.3545 68.5535 15.6833 70.6433 19.1036 72.7002 23.034 73.7525 27.0245 73.6798 35.1185 73.889 42.5826 69.331 46.0935 62.035 48.008 58.1361 48.9657 53.8371 48.8871 49.4944 48.9657 45.1516 48.008 40.8526 46.0935 36.9538Z" fill="#74A4BC" transform="matrix(1 0 0 1.17213 420 1625.02)"/><path d="M93.5687 38.8971C96.4899 40.7197 98.8494 43.3156 100.386 46.3972 102.058 49.7358 102.901 53.428 102.845 57.1614 102.907 60.9247 102.064 64.6479 100.386 68.0168 98.8568 71.1132 96.5166 73.7367 93.6142 75.608 90.732 77.4308 87.3835 78.38 83.9734 78.3408 80.9634 78.3748 77.9983 77.6099 75.3802 76.1242 72.8307 74.7075 70.6795 72.6711 69.1251 70.2031L69.1251 91.4583C69.1436 92.1089 68.8971 92.7391 68.4419 93.2043 67.4675 94.1145 65.9547 94.1145 64.9803 93.2043 64.5211 92.7406 64.2692 92.1108 64.282 91.4583L64.282 38.8516C64.2728 38.1908 64.5237 37.5529 64.9803 37.0752 65.9389 36.1259 67.4833 36.1259 68.4419 37.0752 68.8945 37.5544 69.14 38.1926 69.1251 38.8516L69.1251 44.3476C70.529 41.8088 72.6383 39.7311 75.198 38.3657 80.9922 35.2909 87.977 35.4928 93.5838 38.8971ZM91.0939 71.6454C93.3547 70.1883 95.1677 68.1337 96.3318 65.7091 97.6258 63.0481 98.2759 60.12 98.2296 57.1614 98.2711 54.2423 97.6207 51.3548 96.3318 48.7353 95.1581 46.3292 93.3462 44.2915 91.0939 42.8445 88.829 41.4002 86.1885 40.6557 83.5028 40.7038 80.798 40.6607 78.1375 41.3931 75.8357 42.8142 73.5641 44.2185 71.7456 46.2479 70.5978 48.6593 69.3228 51.3091 68.6883 54.2214 68.7456 57.1614 68.6918 60.1158 69.326 63.042 70.5978 65.7091 72.9283 70.7124 77.984 73.8767 83.5028 73.7861 86.1885 73.8342 88.829 73.0897 91.0939 71.6454Z" fill="#74A4BC" transform="matrix(1 0 0 1.17213 420 1625.02)"/><path d="M146.965 56.4023C146.515 56.8438 145.91 57.0895 145.28 57.0855L114.778 57.0855C114.729 60.0938 115.412 63.0687 116.767 65.7546 118.035 68.2694 119.987 70.3746 122.4 71.8276 125.036 73.3505 128.041 74.1174 131.084 74.0442 133.495 74.0814 135.878 73.5233 138.022 72.4197 139.952 71.4435 141.633 70.0418 142.942 68.3204 143.407 67.8991 144.001 67.6476 144.627 67.6069 145.764 67.6533 146.676 68.5647 146.722 69.702 146.693 70.3409 146.402 70.9396 145.917 71.3569 144.14 73.5104 141.931 75.2686 139.434 76.5189 136.881 77.853 134.041 78.546 131.16 78.5382 127.336 78.6279 123.553 77.7229 120.183 75.9116 117.051 74.1798 114.48 71.5878 112.774 68.4419 110.944 65.0394 110.023 61.2216 110.102 57.3588 110.014 53.3405 110.916 49.3623 112.729 45.7747 114.306 42.6496 116.718 40.0221 119.697 38.1835 122.508 36.45 125.747 35.5351 129.05 35.5418 132.228 35.5231 135.359 36.3009 138.159 37.804 141.018 39.34 143.402 41.6292 145.052 44.4235 146.894 47.5489 147.845 51.1196 147.8 54.7475 147.779 55.3951 147.473 56.0005 146.965 56.4023ZM120.305 43.4518C117.528 45.8187 115.709 49.1166 115.188 52.7282L142.714 52.7282 142.714 52.0905C142.493 49.7944 141.653 47.6011 140.285 45.7443 138.975 43.9764 137.242 42.5667 135.244 41.6451 133.308 40.7266 131.193 40.2445 129.05 40.2332 125.845 40.2351 122.746 41.3759 120.305 43.4518Z" fill="#74A4BC" transform="matrix(1 0 0 1.17213 420 1625.02)"/><path d="M188.155 39.9447C190.629 43.3182 191.868 47.441 191.662 51.6199L191.662 75.3195C191.678 75.9745 191.414 76.605 190.933 77.0503 190.479 77.4941 189.867 77.7397 189.232 77.7335 187.942 77.7762 186.861 76.7644 186.818 75.4739 186.817 75.4224 186.817 75.371 186.818 75.3195L186.818 51.8476C186.957 48.7899 186.027 45.7794 184.192 43.3303 182.159 41.0387 179.17 39.8308 176.115 40.0661 173.825 40.0599 171.569 40.6123 169.541 41.6755 167.545 42.6954 165.817 44.1728 164.5 45.9873 163.249 47.6849 162.574 49.7385 162.572 51.8476L162.572 75.3195C162.594 75.9661 162.346 76.5927 161.889 77.0503 161.425 77.5055 160.794 77.752 160.143 77.7335 158.853 77.7762 157.772 76.7644 157.729 75.4739 157.728 75.4224 157.728 75.371 157.729 75.3195L157.729 39.1704C157.687 37.8797 158.698 36.7991 159.988 36.7564 160.04 36.7547 160.092 36.7547 160.143 36.7564 160.794 36.7379 161.425 36.9844 161.889 37.4396 162.346 37.8972 162.594 38.5238 162.572 39.1704L162.572 43.6188C164.132 41.1991 166.278 39.214 168.812 37.8495 171.346 36.3652 174.225 35.5696 177.163 35.5418 182.153 35.5418 185.816 37.0095 188.155 39.9447Z" fill="#74A4BC" transform="matrix(1 0 0 1.17213 420 1625.02)"/></g></g></g><path d="M612.143 1405.16 1070.37 1405.16" stroke="#222A35" stroke-width="4.58333" stroke-linejoin="round" stroke-miterlimit="10" fill="none" fill-rule="evenodd"/><path d="M614.435 1269.03 614.435 1541.28" stroke="#222A35" stroke-width="4.58333" stroke-linejoin="round" stroke-miterlimit="10" fill="none" fill-rule="evenodd"/><path d="M1068.08 1269.03 1068.08 1541.28" stroke="#222A35" stroke-width="4.58333" stroke-linejoin="round" stroke-miterlimit="10" fill="none" fill-rule="evenodd"/><path d="M612.143 1271.32 1070.37 1271.32" stroke="#222A35" stroke-width="4.58333" stroke-linejoin="round" stroke-miterlimit="10" fill="none" fill-rule="evenodd"/><path d="M612.143 1538.99 1070.37 1538.99" stroke="#222A35" stroke-width="4.58333" stroke-linejoin="round" stroke-miterlimit="10" fill="none" fill-rule="evenodd"/><g clip-path="url(#clip4)"><text fill="#DC2126" font-family="Calibri,Calibri_MSFontService,sans-serif" font-weight="400" font-size="83" transform="matrix(1 0 0 1 644.435 1365)">Notebooks</text></g><g clip-path="url(#clip5)"><text fill="#DC2126" font-family="Calibri,Calibri_MSFontService,sans-serif" font-weight="400" font-size="83" transform="matrix(1 0 0 1 644.435 1499)">Batch Jobs</text></g><g clip-path="url(#clip6)"><g clip-path="url(#clip7)"><g clip-path="url(#clip8)"><path d="M2108.22 1529.64C2108.22 1532.01 2106.64 1533.59 2104.27 1533.59L2073.43 1533.59C2071.06 1533.59 2069.48 1532.01 2069.48 1529.64L2069.48 1506.71C2069.48 1504.34 2071.06 1502.76 2073.43 1502.76L2104.27 1502.76C2106.64 1502.76 2108.22 1504.34 2108.22 1506.71L2108.22 1529.64Z" fill="#B8D432"/><path d="M2163.56 1553.36C2163.56 1555.73 2161.98 1557.31 2159.61 1557.31L2128.77 1557.31C2126.4 1557.31 2124.82 1555.73 2124.82 1553.36L2124.82 1530.43C2124.82 1528.06 2126.4 1526.48 2128.77 1526.48L2159.61 1526.48C2161.98 1526.48 2163.56 1528.06 2163.56 1530.43L2163.56 1553.36Z" fill="#B8D432"/><path d="M2108.22 1577.08C2108.22 1579.45 2106.64 1581.03 2104.27 1581.03L2073.43 1581.03C2071.06 1581.03 2069.48 1579.45 2069.48 1577.08L2069.48 1554.15C2069.48 1551.78 2071.06 1550.2 2073.43 1550.2L2104.27 1550.2C2106.64 1550.2 2108.22 1551.78 2108.22 1554.15L2108.22 1577.08Z" fill="#B8D432"/><path d="M2052.88 1505.92C2052.88 1508.29 2051.29 1509.87 2048.92 1509.87L2017.3 1509.87C2014.92 1509.87 2013.34 1508.29 2013.34 1505.92L2013.34 1482.2C2013.34 1479.83 2014.92 1478.25 2017.3 1478.25L2048.13 1478.25C2051.29 1478.25 2052.88 1479.83 2052.88 1482.2L2052.88 1505.92Z" fill="#B8D432"/><path d="M2191.23 1422.91 2191.23 1422.91 2167.52 1422.91 1992.79 1422.91 1977.77 1422.91 1969.86 1422.91C1967.49 1422.91 1965.91 1424.49 1965.91 1426.86L1965.91 1474.3C1965.91 1476.67 1967.49 1478.25 1969.86 1478.25L1993.58 1478.25C1995.95 1478.25 1997.53 1476.67 1997.53 1474.3L1997.53 1454.53 2163.56 1454.53 2163.56 1474.3C2163.56 1476.67 2165.14 1478.25 2168.31 1478.25L2191.23 1478.25C2193.61 1478.25 2195.19 1476.67 2195.19 1474.3L2195.19 1450.58 2195.19 1426.86C2195.19 1424.49 2193.61 1422.91 2191.23 1422.91Z" fill="#0072C6"/><path d="M2191.23 1605.54 2168.31 1605.54C2165.93 1605.54 2164.35 1607.12 2164.35 1609.49L2164.35 1628.47 1997.53 1628.47 1997.53 1608.7C1997.53 1606.33 1995.95 1604.75 1992.79 1604.75L1969.86 1604.75C1967.49 1604.75 1965.91 1606.33 1965.91 1609.49L1965.91 1656.14C1965.91 1658.51 1967.49 1660.09 1969.86 1660.09L1977.77 1660.09 1993.58 1660.09 2168.31 1660.09 2190.44 1660.09 2191.23 1660.09C2193.61 1660.09 2195.19 1658.51 2195.19 1656.14L2195.19 1609.49C2195.19 1607.12 2193.61 1605.54 2191.23 1605.54Z" fill="#0072C6"/><path d="M2052.88 1553.36C2052.88 1555.73 2051.29 1557.31 2048.92 1557.31L2017.3 1557.31C2014.92 1557.31 2013.34 1555.73 2013.34 1553.36L2013.34 1529.64C2013.34 1527.27 2014.92 1525.69 2017.3 1525.69L2048.13 1525.69C2051.29 1525.69 2052.88 1527.27 2052.88 1529.64L2052.88 1553.36Z" fill="#B8D432"/><path d="M2052.88 1600.8C2052.88 1603.17 2051.29 1604.75 2048.92 1604.75L2017.3 1604.75C2014.92 1604.75 2013.34 1603.17 2013.34 1600.8L2013.34 1577.08C2013.34 1574.71 2014.92 1573.12 2017.3 1573.12L2048.13 1573.12C2051.29 1573.12 2052.88 1574.71 2052.88 1577.08L2052.88 1600.8Z" fill="#B8D432"/></g></g></g><g clip-path="url(#clip9)"><g clip-path="url(#clip10)"><g clip-path="url(#clip11)"><path d="M1793.63 1358.38C1795.69 1356.31 1795.34 1352.53 1793.63 1350.47L1782.97 1339.81 1735.53 1293.75C1733.47 1291.69 1730.38 1291.69 1727.97 1293.75L1727.97 1293.75C1725.91 1295.81 1725.22 1299.59 1727.97 1301.66L1777.81 1350.47C1779.88 1352.53 1779.88 1356.31 1777.81 1358.38L1726.94 1408.91C1724.88 1410.97 1724.88 1414.75 1726.94 1416.81L1726.94 1416.81C1729 1418.88 1732.78 1418.53 1734.5 1416.81L1781.59 1370.06C1781.59 1370.06 1781.59 1370.06 1781.94 1369.72L1793.63 1358.38Z" fill="#3999C6"/><path d="M1576.38 1358.38C1574.31 1356.31 1574.66 1352.53 1576.38 1350.47L1587.03 1339.81 1634.47 1293.75C1636.53 1291.69 1639.63 1291.69 1642.03 1293.75L1642.03 1293.75C1644.09 1295.81 1644.78 1299.59 1642.03 1301.66L1593.22 1350.47C1591.16 1352.53 1591.16 1356.31 1593.22 1358.38L1643.06 1408.91C1645.13 1410.97 1645.13 1414.75 1643.06 1416.81L1643.06 1416.81C1641 1418.88 1637.22 1418.53 1635.5 1416.81L1587.38 1370.75C1587.38 1370.75 1587.38 1370.75 1587.03 1370.41L1576.38 1358.38Z" fill="#3999C6"/><path d="M1738.63 1255.59 1671.59 1255.59 1635.5 1357.34 1679.5 1357.69 1645.13 1458.41 1740 1324 1693.94 1324Z" fill="#FCD116"/><path d="M1693.94 1324 1738.63 1255.59 1703.56 1255.59 1666.44 1340.16 1710.44 1340.5 1645.13 1458.41 1740 1324Z" fill="#FF8C00" fill-opacity="0.3"/></g></g></g><g clip-path="url(#clip12)"><g clip-path="url(#clip13)"><g clip-path="url(#clip14)"><path d="M2557.62 1356.38C2559.69 1354.31 2559.34 1350.53 2557.62 1348.47L2546.97 1337.81 2499.53 1291.75C2497.47 1289.69 2494.37 1289.69 2491.97 1291.75L2491.97 1291.75C2489.91 1293.81 2489.22 1297.59 2491.97 1299.66L2541.81 1348.47C2543.87 1350.53 2543.87 1354.31 2541.81 1356.38L2490.94 1406.91C2488.87 1408.97 2488.87 1412.75 2490.94 1414.81L2490.94 1414.81C2493 1416.88 2496.78 1416.53 2498.5 1414.81L2545.59 1368.06C2545.59 1368.06 2545.59 1368.06 2545.94 1367.72L2557.62 1356.38Z" fill="#3999C6"/><path d="M2340.37 1356.38C2338.31 1354.31 2338.66 1350.53 2340.37 1348.47L2351.03 1337.81 2398.47 1291.75C2400.53 1289.69 2403.62 1289.69 2406.03 1291.75L2406.03 1291.75C2408.09 1293.81 2408.78 1297.59 2406.03 1299.66L2357.22 1348.47C2355.16 1350.53 2355.16 1354.31 2357.22 1356.38L2407.06 1406.91C2409.12 1408.97 2409.12 1412.75 2407.06 1414.81L2407.06 1414.81C2405 1416.88 2401.22 1416.53 2399.5 1414.81L2351.37 1368.75C2351.37 1368.75 2351.37 1368.75 2351.03 1368.41L2340.37 1356.38Z" fill="#3999C6"/><path d="M2502.62 1253.59 2435.59 1253.59 2399.5 1355.34 2443.5 1355.69 2409.12 1456.41 2504 1322 2457.94 1322Z" fill="#FCD116"/><path d="M2457.94 1322 2502.62 1253.59 2467.56 1253.59 2430.44 1338.16 2474.44 1338.5 2409.12 1456.41 2504 1322Z" fill="#FF8C00" fill-opacity="0.3"/></g></g></g><path d="M1526 1044.25C1526 1012.08 1552.08 986 1584.25 986L2588.75 986C2620.92 986 2647 1012.08 2647 1044.25L2647 1811.75C2647 1843.92 2620.92 1870 2588.75 1870L1584.25 1870C1552.08 1870 1526 1843.92 1526 1811.75Z" stroke="#8FAADC" stroke-width="5.72917" stroke-miterlimit="8" fill="none" fill-rule="evenodd"/><text fill="#8FAADC" font-family="Segoe UI Semibold,Segoe UI Semibold_MSFontService,sans-serif" font-weight="600" font-size="73" transform="matrix(1 0 0 1 247.76 1081)">Spark Listeners capture and <tspan font-size="73" x="203.798" y="79">publish events </tspan><tspan font-size="64" x="1382.6" y="-13">Event Driven Services Transform </tspan><tspan font-size="64" x="1371.21" y="56">Lineage Metadata and Publish to </tspan><tspan font-size="64" x="1580.87" y="125">Purview Platform</tspan><tspan font-size="50" x="1324.53" y="442">Grab and </tspan><tspan font-size="50" x="1300.2" y="496">filter events </tspan><tspan font-size="50" x="1317.08" y="551">from ADB</tspan><tspan font-size="50" x="1691.23" y="676">Store Events in </tspan><tspan font-size="50" x="1656.01" y="730">Messaging Queue</tspan><tspan font-size="50" x="2122.35" y="425">Transform </tspan><tspan font-size="50" x="2109.45" y="479">and Publish </tspan><tspan font-size="50" x="2121.21" y="534">Lineage to </tspan><tspan font-size="50" x="2146.99" y="588">Purview</tspan></text><path d="M0.100103-5.15528 13.0626-4.90358 26.1267-4.20598 39.0528-3.00208 51.9796-1.41792 64.7843 0.673948 77.4428 3.14236 89.9143 5.99116 102.305 9.23171 126.337 16.8208 149.335 25.7542 171.11 35.8817 181.564 41.4279 191.524 47.2009 201.193 53.1803 210.376 59.4936 219.089 65.9802 227.392 72.6231 235.15 79.5477 242.394 86.6626 249.075 93.9222 255.202 101.34 260.694 108.899 265.642 116.581 269.826 124.491 273.356 132.402 276.192 140.447 278.247 148.602 279.512 156.859 279.9 164.876 280.275 172.626 280.221 172.088 281.408 179.775 281.312 179.302 283.25 186.99 283.117 186.548 285.805 194.236 285.646 193.836 289.021 201.399 288.862 201.074 292.862 208.574 292.675 208.251 297.362 215.688 297.155 215.384 302.53 222.696 302.35 222.466 308.288 229.654 308.106 229.446 314.606 236.508 314.426 236.322 321.488 243.259 321.291 243.075 328.853 249.762 328.677 249.614 336.802 256.176 336.642 256.052 345.204 262.427 345.046 262.314 354.046 268.501 353.85 268.373 363.288 274.248 363.136 274.157 373.011 279.844 372.854 279.757 383.104 285.195 382.867 285.077 404.305 295.077 403.987 294.942 426.737 303.754 426.431 303.647 450.119 311.147 449.867 311.074 462.055 314.262 461.898 314.223 474.211 317.036 474.049 317.002 486.549 319.439 486.369 319.407 498.994 321.407 498.839 321.385 511.589 323.01 511.318 322.983 524.064 323.926 523.303 334.211 510.421 333.257 497.458 331.605 484.665 329.578 471.995 327.108 459.523 324.259 447.131 321.018 423.164 313.429 400.102 304.496 378.388 294.367 367.942 288.825 357.913 283.049 348.3 277.065 339.124 270.756 330.402 264.263 322.108 257.564 314.358 250.711 307.107 243.587 300.425 236.328 294.307 228.921 288.736 221.343 283.851 213.591 279.678 205.767 276.141 197.842 273.306 189.734 271.254 181.588 269.988 173.395 269.6 165.374 269.225 157.624 269.278 158.156 268.091 150.406 268.188 150.885 266.25 143.198 266.387 143.652 263.699 136.027 263.854 136.414 260.479 128.851 260.63 129.161 256.63 121.598 256.853 121.979 252.103 114.604 252.266 114.843 246.953 107.531 247.15 107.784 241.212 100.596 241.394 100.804 234.894 93.7418 235.074 93.9284 228.012 86.9909 228.191 87.1593 220.629 80.4093 220.841 80.5889 212.716 74.0889 212.858 74.1983 204.296 67.8233 204.454 67.9365 195.454 61.749 195.663 61.8854 186.163 56.0104 186.289 56.0861 176.477 50.3986 176.646 50.4925 166.396 45.055 166.638 45.1753 145.138 35.1753 145.446 35.3064 122.758 26.4939 123.072 26.6044 99.3223 19.1044 99.5703 19.176 87.3828 15.9885 87.5393 16.0268 75.2268 13.2143 75.3881 13.2484 62.8881 10.8109 63.0437 10.8388 50.4187 8.77629 50.6228 8.80546 37.8728 7.24296 38.0218 7.25903 25.2718 6.07153 25.4751 6.08641 12.6001 5.39891 12.7749 5.40528-0.100103 5.15528ZM519.241 313.38 549.438 330.25 517.824 344.285Z" fill="#74A4BC" transform="matrix(1 0 0 -1 965 1685.25)"/><path d="M1795.34 1351.85 1803.32 1352.38 1811.54 1354.08 1819.53 1356.76 1827.33 1360.36 1834.78 1364.75 1841.91 1369.97 1848.61 1375.82 1854.93 1382.33 1860.64 1389.42 1865.8 1396.93 1870.4 1404.87 1874.27 1413.28 1877.43 1421.9 1879.74 1430.75 1881.2 1439.83 1881.65 1448.74 1882.09 1457.36 1882.03 1456.8 1883.4 1465.3 1883.3 1464.83 1885.49 1473.27 1885.34 1472.79 1888.34 1480.98 1888.18 1480.58 1891.86 1488.52 1891.65 1488.11 1896.03 1495.67 1895.82 1495.35 1900.76 1502.6 1900.48 1502.22 1905.98 1508.91 1905.72 1508.62 1911.66 1514.81 1911.33 1514.49 1917.7 1520.05 1917.36 1519.78 1924.11 1524.71 1923.71 1524.45 1930.71 1528.64 1929.38 1528.08 1934.38 1529.4 1931.75 1539.37 1926.04 1537.86 1918.21 1533.18 1911.09 1527.97 1904.38 1522.11 1898.14 1515.62 1892.37 1508.6 1887.19 1501 1882.61 1493.07 1878.73 1484.73 1875.57 1476.1 1873.26 1467.19 1871.8 1458.17 1871.35 1449.26 1870.91 1440.64 1870.97 1441.19 1869.6 1432.63 1869.7 1433.12 1867.51 1424.74 1867.66 1425.21 1864.66 1417.02 1864.82 1417.41 1861.13 1409.41 1861.35 1409.83 1856.97 1402.27 1857.19 1402.61 1852.25 1395.42 1852.48 1395.73 1847.05 1388.98 1847.36 1389.34 1841.36 1383.15 1841.67 1383.45 1835.3 1377.89 1835.64 1378.16 1828.89 1373.22 1829.32 1373.5 1822.32 1369.38 1822.78 1369.62 1815.46 1366.24 1815.98 1366.45 1808.54 1363.95 1809.14 1364.11 1801.58 1362.55 1802.29 1362.65 1794.66 1362.15ZM1932.01 1518.11 1958 1540.94 1924.15 1548.03Z" fill="#74A4BC"/><path d="M0.481288-5.13374 6.87731-4.53411 13.6109-2.83299 20.1566 0.0220557 26.4396 3.70991 32.4003 8.24813 38.0762 13.5902 43.3713 19.5472 48.31 26.1321 52.8288 33.2705 56.9506 40.9252 60.4728 48.9481 63.5369 57.2928 65.9523 65.9752 67.7801 74.8533 68.8927 83.9502 69.2765 92.8401 69.6515 101.592 69.6176 101.182 70.6801 109.807 70.6128 109.398 72.3628 117.898 72.2801 117.556 74.5926 125.868 74.4697 125.485 77.4072 133.547 77.2838 133.24 80.6588 140.927 80.4686 140.539 84.4061 147.789 84.2317 147.492 88.5442 154.305 88.3272 153.988 93.0147 160.301 92.7288 159.949 97.7288 165.574 97.3853 165.223 102.698 170.161 101.299 169.234 106.553 171.592 102.33 181 96.3 178.293 90.1846 172.609 84.8705 166.631 79.9334 159.983 75.4261 152.862 71.3032 145.271 67.7746 137.233 64.7114 128.826 62.2977 120.15 60.4703 111.274 59.3573 102.239 58.9735 93.2849 58.5985 84.5974 58.6319 85.001 57.5694 76.3135 57.6372 76.7273 55.8872 68.2273 55.9699 68.5695 53.6574 60.257 53.7847 60.6523 50.8472 52.6523 50.9662 52.9478 47.5912 45.2603 47.7726 45.6321 43.8351 38.3196 44.0183 38.6329 39.7058 31.8204 39.9375 32.1562 35.25 25.9062 35.5212 26.2381 30.5212 20.6131 30.8411 20.9423 25.5286 15.9423 25.939 16.29 20.439 12.1025 20.9524 12.4468 15.2024 9.07183 15.7511 9.35124 9.87605 6.78874 10.6745 7.06169 4.73705 5.56169 5.51871 5.69624-0.481288 5.13374ZM105.615 160.033 128.25 186.188 93.7453 188.603Z" fill="#74A4BC" transform="matrix(1 0 0 -1 2211 1541.13)"/><path d="M2647.07 1422.84 2681.37 1423.28 2698.2 1423.85 2714.64 1424.6 2730.51 1425.48 2745.78 1426.55 2760.24 1427.8 2773.75 1429.19 2786.16 1430.64 2797.42 1432.22 2807.39 1433.93 2811.81 1434.83 2815.92 1435.73 2819.62 1436.64 2822.98 1437.58 2825.97 1438.62 2828.55 1439.7 2830.94 1440.93 2832.97 1442.46 2834.93 1444.71 2835.48 1446.8 2835.73 1447.73 2834.65 1445.69 2835.46 1446.62 2834.66 1445.87 2835.91 1446.81 2835.18 1446.36 2836.99 1447.3 2836.49 1447.07 2838.74 1447.94 2838.57 1447.88 2841.26 1448.82 2840.95 1448.72 2844.08 1449.6 2844 1449.58 2847.56 1450.51 2847.35 1450.46 2851.35 1451.34 2851.2 1451.31 2855.52 1452.12 2855.44 1452.11 2865.25 1453.79 2865.09 1453.77 2876.22 1455.33 2876.12 1455.32 2888.44 1456.82 2888.31 1456.81 2901.75 1458.12 2901.7 1458.11 2916.01 1459.36 2915.92 1459.36 2931.11 1460.42 2931.03 1460.41 2946.85 1461.29 2946.8 1461.29 2963.17 1462.04 2963.11 1462.03 2979.86 1462.6 2979.75 1462.59 2988.22 1462.7 2988.09 1473.01 2979.57 1472.91 2962.73 1472.34 2946.3 1471.59 2930.43 1470.71 2915.16 1469.64 2900.77 1468.38 2887.25 1467.06 2874.83 1465.55 2863.58 1463.97 2853.65 1462.26 2849.22 1461.43 2845.04 1460.51 2841.34 1459.54 2838.02 1458.61 2835.09 1457.59 2832.5 1456.58 2830.06 1455.32 2828.03 1453.79 2826.07 1451.54 2825.52 1449.45 2825.27 1448.52 2826.35 1450.56 2825.54 1449.63 2826.34 1450.37 2825.09 1449.44 2825.82 1449.89 2824.01 1448.95 2824.39 1449.13 2822.14 1448.2 2822.43 1448.31 2819.74 1447.37 2820.05 1447.47 2816.92 1446.59 2817.08 1446.63 2813.52 1445.76 2813.65 1445.79 2809.65 1444.91 2809.72 1444.93 2805.41 1444.05 2805.56 1444.08 2795.75 1442.39 2795.91 1442.42 2784.78 1440.86 2784.9 1440.87 2772.59 1439.43 2772.66 1439.44 2759.22 1438.07 2759.3 1438.07 2744.93 1436.82 2745.01 1436.83 2729.83 1435.77 2729.9 1435.77 2714.09 1434.9 2714.14 1434.9 2697.76 1434.15 2697.83 1434.15 2681.08 1433.59 2681.18 1433.59 2646.93 1433.16ZM2983.2 1452.32 3013.94 1468.19 2982.8 1483.26Z" fill="#74A4BC"/><path d="M180 1044.25C180 1012.08 206.078 986 238.246 986L1131.75 986C1163.92 986 1190 1012.08 1190 1044.25L1190 1811.75C1190 1843.92 1163.92 1870 1131.75 1870L238.246 1870C206.078 1870 180 1843.92 180 1811.75Z" stroke="#8FAADC" stroke-width="5.72917" stroke-miterlimit="8" fill="none" fill-rule="evenodd"/><g clip-path="url(#clip15)"><g clip-path="url(#clip16)"><g clip-path="url(#clip17)"><path d="M133.27 266.119 8.43751 198.408 8.43751 157.233 132.806 93.1501 257.217 157.233 257.217 198.408 133.27 266.119Z" fill="#DC2126" transform="matrix(1.01111 0 0 1 258 1274)"/><path d="M132.891 93.1501 257.344 157.275 132.806 222.286 8.43751 157.275 132.891 93.1501Z" fill="#F0542D" transform="matrix(1.01111 0 0 1 258 1274)"/><path d="M133.27 181.406 8.43751 113.695 8.43751 72.5204 132.806 8.43751 257.217 72.5204 257.217 113.695 133.27 181.406Z" fill="#DC2126" transform="matrix(1.01111 0 0 1 258 1274)"/><path d="M132.891 8.43751 257.344 72.5204 132.806 137.531 8.43751 72.5204 132.891 8.43751Z" fill="#F0542D" transform="matrix(1.01111 0 0 1 258 1274)"/></g></g></g><g clip-path="url(#clip18)"><g clip-path="url(#clip19)"><g clip-path="url(#clip20)"><path d="M117.394 97.4593C107.427 97.4593 99.6743 89.7068 99.6743 79.7394 87.4918 79.7394 77.5244 89.7068 77.5244 101.889 77.5244 114.072 87.4918 124.039 99.6743 124.039 111.857 124.039 121.824 114.072 121.824 101.889 121.824 100.782 121.824 98.5668 121.824 97.4593 119.609 97.4593 118.502 97.4593 117.394 97.4593Z" fill="url(#fill21)" transform="matrix(1.00327 0 0 1 3069 1031.28)"/><path d="M142.866 124.039C141.759 116.287 139.544 108.534 135.114 101.889 134.007 120.717 118.502 135.114 99.6743 135.114 98.5668 135.114 98.5668 135.114 97.4593 135.114 78.6319 135.114 60.912 127.362 46.5146 114.072 34.3322 102.997 26.5798 88.5993 21.0423 73.0945 15.5049 79.7394 8.85993 85.2769 3.32248 91.9218-1.10749 95.2443-1.10749 101.889 2.21498 106.319 2.21498 106.319 2.21498 106.319 3.32248 107.427 15.5049 121.824 29.9023 135.114 46.5146 145.081 63.127 156.156 81.9544 161.694 101.889 161.694 115.179 161.694 127.362 158.371 138.436 152.834 139.544 152.834 139.544 151.726 140.651 151.726 142.866 142.866 142.866 134.007 142.866 124.039Z" fill="url(#fill22)" transform="matrix(1.00327 0 0 1 3069 1031.28)"/><path d="M68.6645 116.287C60.912 101.889 63.127 85.2769 74.2019 74.2019 84.1694 62.0195 96.3518 53.1596 110.749 48.7296 118.502 46.5146 126.254 45.4072 135.114 45.4072 128.469 42.0847 121.824 40.9772 114.072 38.7622 95.2443 35.4397 75.3094 38.7622 57.5896 47.6221 47.6221 53.1596 38.7622 58.6971 29.9023 65.342 34.3322 80.8469 42.0847 94.1368 53.1596 105.212 57.5896 109.642 63.127 112.964 68.6645 116.287Z" fill="url(#fill23)" transform="matrix(1.00327 0 0 1 3069 1031.28)"/><path d="M196.026 93.0293C184.951 79.7394 172.769 68.6645 158.371 58.6971 143.974 54.2671 128.469 54.2671 114.072 58.6971 110.749 59.8046 106.319 62.0195 102.997 64.2345 109.642 64.2345 115.179 66.4495 120.717 69.772 120.717 69.772 121.824 69.772 121.824 70.8795 139.544 81.9544 150.619 100.782 153.941 120.717 155.049 128.469 155.049 136.221 153.941 145.081 170.554 135.114 184.951 121.824 197.134 106.319 200.456 102.997 200.456 97.4593 196.026 93.0293 197.134 93.0293 196.026 93.0293 196.026 93.0293Z" fill="url(#fill24)" transform="matrix(1.00327 0 0 1 3069 1031.28)"/></g></g></g></g></svg>