<svg width="252" height="189" xmlns="http://www.w3.org/2000/svg" xmlns:xlink="http://www.w3.org/1999/xlink" overflow="hidden"><defs><clipPath id="clip0"><rect x="3161" y="479" width="252" height="189"/></clipPath><clipPath id="clip1"><rect x="3161" y="522" width="104" height="104"/></clipPath><clipPath id="clip2"><rect x="3161" y="522" width="104" height="104"/></clipPath><clipPath id="clip3"><rect x="3161" y="522" width="104" height="104"/></clipPath><clipPath id="clip4"><rect x="3283" y="529" width="131" height="86"/></clipPath><clipPath id="clip5"><rect x="3283" y="529" width="131" height="86"/></clipPath><clipPath id="clip6"><rect x="3283" y="508" width="131" height="129"/></clipPath><linearGradient x1="63.8065" y1="79.1657" x2="63.8065" y2="51.0338" gradientUnits="userSpaceOnUse" spreadMethod="pad" id="fill7"><stop offset="0" stop-color="#29BADE"/><stop offset="1" stop-color="#50E6FF"/></linearGradient><linearGradient x1="45.8181" y1="103.916" x2="45.8181" y2="23.9397" gradientUnits="userSpaceOnUse" spreadMethod="pad" id="fill8"><stop offset="0" stop-color="#32BEDD"/><stop offset="0.041" stop-color="#32BEDD"/><stop offset="0.495" stop-color="#50E6FF"/><stop offset="0.92" stop-color="#C3F1FF"/><stop offset="1" stop-color="#C3F1FF"/></linearGradient><linearGradient x1="53.0524" y1="71.4118" x2="53.0524" y2="1.80537" gradientUnits="userSpaceOnUse" spreadMethod="pad" id="fill9"><stop offset="0" stop-color="#0078D4"/><stop offset="0.244" stop-color="#0078D4"/><stop offset="0.6" stop-color="#2E8CE1"/><stop offset="0.933" stop-color="#589EED"/><stop offset="1" stop-color="#589EED"/></linearGradient><linearGradient x1="96.8669" y1="103.958" x2="96.8669" y2="29.8029" gradientUnits="userSpaceOnUse" spreadMethod="pad" id="fill10"><stop offset="0" stop-color="#005BA1"/><stop offset="0.399" stop-color="#0078D4"/><stop offset="0.857" stop-color="#5EA0EF"/><stop offset="1" stop-color="#5EA0EF"/></linearGradient></defs><g clip-path="url(#clip0)" transform="translate(-3161 -479)"><g clip-path="url(#clip1)"><g clip-path="url(#clip2)"><g clip-path="url(#clip3)"><path d="M3212.33 624.505 3164.25 598.424 3164.25 582.564 3212.16 557.88 3260.08 582.564 3260.08 598.424 3212.33 624.505Z" fill="#DC2126"/><path d="M3212.19 557.88 3260.12 582.58 3212.16 607.621 3164.25 582.58 3212.19 557.88Z" fill="#F0542D"/><path d="M3212.33 591.875 3164.25 565.794 3164.25 549.934 3212.16 525.25 3260.08 549.934 3260.08 565.794 3212.33 591.875Z" fill="#DC2126"/><path d="M3212.19 525.25 3260.12 549.934 3212.16 574.975 3164.25 549.934 3212.19 525.25Z" fill="#F0542D"/></g></g></g><g clip-path="url(#clip4)"><g clip-path="url(#clip5)"><g clip-path="url(#clip6)"><path d="M75.3424 62.5484C68.9454 62.5484 63.97 57.573 63.97 51.176 56.1514 51.176 49.7544 57.573 49.7544 65.3915 49.7544 73.2101 56.1514 79.6071 63.97 79.6071 71.7885 79.6071 78.1855 73.2101 78.1855 65.3915 78.1855 64.6807 78.1855 63.2592 78.1855 62.5484 76.764 62.5484 76.0532 62.5484 75.3424 62.5484Z" fill="url(#fill7)" transform="matrix(1.00829 0 0 1 3284 508.645)"/><path d="M91.6903 79.6071C90.9795 74.6316 89.5579 69.6562 86.7148 65.3915 86.0041 77.4747 76.0532 86.7148 63.97 86.7148 63.2592 86.7148 63.2592 86.7148 62.5484 86.7148 50.4652 86.7148 39.0928 81.7394 29.8526 73.2101 22.0341 66.1023 17.0587 56.8622 13.5048 46.9113 9.95088 51.176 5.68622 54.7299 2.13233 58.9945-0.710777 61.1269-0.710777 65.3915 1.42155 68.2346 1.42155 68.2346 1.42155 68.2346 2.13233 68.9454 9.95088 78.1855 19.191 86.7148 29.8526 93.1118 40.5143 100.22 52.5975 103.773 65.3915 103.773 73.9208 103.773 81.7394 101.641 88.8472 98.0873 89.5579 98.0873 89.5579 97.3765 90.2687 97.3765 91.6903 91.6903 91.6903 86.0041 91.6903 79.6071Z" fill="url(#fill8)" transform="matrix(1.00829 0 0 1 3284 508.645)"/><path d="M44.0682 74.6316C39.0928 65.3915 40.5143 54.7299 47.6221 47.6221 54.0191 39.8035 61.8376 34.1173 71.0777 31.2742 76.0532 29.8526 81.0286 29.1419 86.7148 29.1419 82.4502 27.0095 78.1855 26.2988 73.2101 24.8772 61.1269 22.7449 48.3329 24.8772 36.9604 30.5634 30.5634 34.1173 24.8772 37.6712 19.191 41.9359 22.0341 51.8867 27.0095 60.4161 34.1173 67.5238 36.9604 70.367 40.5143 72.4993 44.0682 74.6316Z" fill="url(#fill9)" transform="matrix(1.00829 0 0 1 3284 508.645)"/><path d="M125.808 59.7053C118.7 51.176 110.881 44.0682 101.641 37.6712 92.4011 34.8281 82.4502 34.8281 73.2101 37.6712 71.0777 38.382 68.2346 39.8035 66.1023 41.2251 70.367 41.2251 73.9208 42.6466 77.4747 44.779 77.4747 44.779 78.1855 44.779 78.1855 45.4897 89.5579 52.5975 96.6657 64.6807 98.798 77.4747 99.5088 82.4502 99.5088 87.4256 98.798 93.1118 109.46 86.7148 118.7 78.1855 126.518 68.2346 128.651 66.1023 128.651 62.5484 125.808 59.7053 126.518 59.7053 125.808 59.7053 125.808 59.7053Z" fill="url(#fill10)" transform="matrix(1.00829 0 0 1 3284 508.645)"/></g></g></g><path d="M0.773362 6.83136-2.53914 7.20636-1.10162 6.88481-4.41412 8.00981-3.18941 7.45503-6.43941 9.33003-5.69878 8.83621-8.88628 11.2737-8.15229 10.6245-11.2148 13.7495-10.8207 13.3112-13.7582 16.8737-13.3422 16.3136-16.0922 20.4386-15.8534 20.0535-18.4784 24.616-18.2275 24.1373-20.6025 29.1373-20.4553 28.8052-22.6428 34.1177-22.4259 33.5117-25.9259 44.9492-25.7381 44.1795-27.9881 56.4295-27.9085 55.8649-28.5335 62.1774-28.503 61.7021-28.6905 68.0771-28.6928 67.6056-28.4428 73.9806-28.4787 73.4983-27.7912 79.7483-27.8609 79.2702-26.7359 85.4577-26.8426 84.9717-25.2801 91.0342-25.4816 90.3864-21.2941 101.824-21.5577 101.201-18.9952 106.513-20.8225 104.188-15.5087 108.555-24.2387 119.178-30.7221 113.85-34.0895 106.869-38.5102 94.7947-40.2196 88.1623-41.4324 81.492-42.1727 74.7612-42.4415 67.9087-42.24 61.0597-41.5634 54.2262-39.1902 41.3052-35.4798 29.1802-33.1005 23.4018-30.5315 17.9934-27.6586 13-24.5891 8.39578-21.2417 4.33616-17.6289 0.649667-13.6969-2.35714-9.47549-4.79259-4.82194-6.37303-0.773362-6.83136ZM-12.0936 93.566 6.6875 135.688-38.2784 125.439Z" fill="#F0542D" transform="matrix(1.83697e-16 1 1 -1.83697e-16 3213 522)"/><path d="M3355.5 615.733 3355.05 619.933 3353.51 624.722 3351.12 629.111 3348.14 633.229 3344.46 637.063 3340.41 640.543 3335.81 643.815 3330.82 646.823 3325.39 649.608 3319.57 652.075 3307.55 655.95 3301.01 657.433 3294.4 658.568 3287.61 659.24 3280.72 659.443 3267.52 658.789 3254.13 656.944 3239.13 650.861 3244.3 638.119 3258.5 643.879 3256.85 643.439 3269.1 645.127 3268.5 645.071 3281.13 645.696 3280.59 645.691 3286.96 645.503 3286.49 645.534 3292.8 644.909 3292.31 644.974 3298.5 643.912 3298.14 643.983 3304.21 642.608 3303.62 642.769 3315.06 639.082 3314.48 639.294 3319.8 637.044 3319.34 637.257 3324.34 634.694 3323.93 634.924 3328.49 632.174 3328.05 632.462 3332.18 629.525 3331.68 629.912 3335.25 626.849 3334.77 627.297 3337.9 624.047 3337.28 624.787 3339.72 621.412 3339.25 622.146 3341.13 618.708 3340.62 619.896 3341.74 616.396 3341.45 617.768 3341.83 614.268ZM3236.14 665.505 3212.98 625.625 3258.78 631.022Z" fill="#35C2E1"/></g></svg>