<svg width="4401" height="988" xmlns="http://www.w3.org/2000/svg" xmlns:xlink="http://www.w3.org/1999/xlink" xml:space="preserve" overflow="hidden"><defs><clipPath id="clip0"><rect x="3" y="505" width="4401" height="988"/></clipPath></defs><g clip-path="url(#clip0)" transform="translate(-3 -505)"><rect x="29.9999" y="1165" width="3454" height="153" fill="#8FAADC"/><text font-family="Arial,Arial_MSFontService,sans-serif" font-weight="700" font-size="98" transform="matrix(1 0 0 1 62.7296 1277)">sqlserver://purviewadbsynapsews.sql.azuresynapse.net:1433;database=SQLPool1</text><rect x="3636" y="1165" width="570" height="156" fill="#8FAADC"/><text font-family="Arial,Arial_MSFontService,sans-serif" font-weight="700" font-size="101" transform="matrix(1 0 0 1 3668.95 1280)">sales.region<tspan fill="#FFFFFF" font-weight="400" font-size="92" x="-2208.96" y="137">OL </tspan><tspan fill="#FFFFFF" font-weight="400" font-size="92" x="-2061.72" y="137">NameSpace</tspan><tspan fill="#FFFFFF" font-weight="400" font-size="92" x="72.7998" y="137">OL Name</tspan><tspan fill="#548235" font-weight="400" font-size="64" x="-3484.32" y="-491">Prefix</tspan></text><path d="M554 1161C554 1011.61 574.184 890.499 599.081 890.499L1395.92 890.501C1420.82 890.501 1441 769.394 1441 620 1441 769.394 1461.18 890.501 1486.08 890.501L2282.92 890.501C2307.82 890.501 2328 1011.61 2328 1161" stroke="#4472C4" stroke-width="10.3125" stroke-miterlimit="8" fill="none" fill-rule="evenodd"/><path d="M2372 1161C2372 1015.2 2378.9 897 2387.42 897L2449.08 897C2457.6 897 2464.5 778.803 2464.5 633 2464.5 778.803 2471.4 897 2479.92 897L2541.58 897C2550.1 897 2557 1015.2 2557 1161" stroke="#4472C4" stroke-width="10.3125" stroke-miterlimit="8" fill="none" fill-rule="evenodd"/><path d="M2602 1161C2602 1070.98 2614.16 998 2629.17 998L2971.33 998C2986.34 998 2998.5 925.023 2998.5 835 2998.5 925.023 3010.66 998 3025.67 998L3367.83 998C3382.84 998 3395 1070.98 3395 1161" stroke="#8497B0" stroke-width="10.3125" stroke-miterlimit="8" fill="none" fill-rule="evenodd"/><text fill="#4472C4" font-family="Consolas,Consolas_MSFontService,sans-serif" font-weight="400" font-size="64" transform="matrix(1 0 0 1 1128.54 586)">nameSpcBodyParts<tspan font-size="64" x="568.333" y="0">[0] </tspan><tspan font-size="64" x="1009.32" y="0">nameSpcBodyParts</tspan>[1] <tspan fill="#8497B0" font-size="64" x="1388.38" y="202">nameSpcNameVals</tspan><tspan fill="#8497B0" font-size="64" x="1921.19" y="202">[‘database’]</tspan></text><path d="M3654 1161C3654 1015.2 3673.51 897 3697.58 897L3871.92 897C3895.99 897 3915.5 778.803 3915.5 633 3915.5 778.803 3935.01 897 3959.08 897L4133.42 897C4157.49 897 4177 1015.2 4177 1161" stroke="#BF9000" stroke-width="10.3125" stroke-miterlimit="8" fill="none" fill-rule="evenodd"/><text fill="#BF9000" font-family="Consolas,Consolas_MSFontService,sans-serif" font-weight="400" font-size="64" transform="matrix(1 0 0 1 3697.19 586)">nameGroups<tspan font-size="64" x="355.209" y="0">[0]</tspan></text><rect x="3480" y="946" width="920" height="111"/><text fill="#00B0F0" font-family="Consolas,Consolas_MSFontService,sans-serif" font-weight="400" font-size="64" transform="matrix(1 0 0 1 3512.87 1023)">nameGroups<tspan font-size="64" x="355.209" y="0">[0].parts[0</tspan><tspan font-size="64" x="745.938" y="0">-</tspan><tspan font-size="64" x="781.459" y="0">1]</tspan></text><path d="M3673 1161C3673 1131.73 3676.95 1108 3681.83 1108L3760.17 1108C3765.05 1108 3769 1084.27 3769 1055 3769 1084.27 3772.95 1108 3777.83 1108L3856.17 1108C3861.05 1108 3865 1131.73 3865 1161" stroke="#00B0F0" stroke-width="10.3125" stroke-miterlimit="8" fill="none" fill-rule="evenodd"/><path d="M3904 1161C3904 1131.73 3907.95 1108 3912.83 1108L4016.67 1108C4021.55 1108 4025.5 1084.27 4025.5 1055 4025.5 1084.27 4029.45 1108 4034.33 1108L4138.17 1108C4143.05 1108 4147 1131.73 4147 1161" stroke="#00B0F0" stroke-width="10.3125" stroke-miterlimit="8" fill="none" fill-rule="evenodd"/><path d="M556 1161.03C556 1131.75 559.956 1108.01 564.835 1108.01L1390.13 1108.01C1395.01 1108.01 1398.96 1084.28 1398.96 1055 1398.96 1084.28 1402.92 1108.01 1407.8 1108.01L1442.16 1108.01C1447.04 1108.01 1451 1131.75 1451 1161.03" stroke="#C55A11" stroke-width="10.3125" stroke-miterlimit="8" fill="none" fill-rule="evenodd"/><path d="M1476 1161C1476 1131.73 1479.95 1108 1484.83 1108L1527.17 1108C1532.05 1108 1536 1084.27 1536 1055 1536 1084.27 1539.95 1108 1544.83 1108L1587.17 1108C1592.05 1108 1596 1131.73 1596 1161" stroke="#C55A11" stroke-width="10.3125" stroke-miterlimit="8" fill="none" fill-rule="evenodd"/><path d="M1626 1161C1626 1131.73 1629.95 1108 1634.83 1108L1880.17 1108C1885.05 1108 1889 1084.27 1889 1055 1889 1084.27 1892.95 1108 1897.83 1108L2143.17 1108C2148.05 1108 2152 1131.73 2152 1161" stroke="#C55A11" stroke-width="10.3125" stroke-miterlimit="8" fill="none" fill-rule="evenodd"/><path d="M2190 1161C2190 1131.73 2193.95 1108 2198.83 1108L2202.65 1108C2207.53 1108 2211.48 1084.27 2211.48 1055 2211.48 1084.27 2215.44 1108 2220.31 1108L2301.17 1108C2306.05 1108 2310 1131.73 2310 1161" stroke="#C55A11" stroke-width="10.3125" stroke-miterlimit="8" fill="none" fill-rule="evenodd"/><text fill="#C55A11" font-family="Consolas,Consolas_MSFontService,sans-serif" font-weight="400" font-size="64" transform="matrix(1 0 0 1 1480.84 1023)">nameSpcConParts[0<tspan font-size="64" x="603.854" y="0">-</tspan><tspan font-size="64" x="639.375" y="0">3]</tspan></text><path d="M71.0002 1161C71.0002 1070.98 83.1626 998 98.1656 998L226.835 998C241.838 998 254 925.022 254 835 254 925.022 266.162 998 281.165 998L409.835 998C424.838 998 437 1070.98 437 1161" stroke="#548235" stroke-width="10.3125" stroke-miterlimit="8" fill="none" fill-rule="evenodd"/></g></svg>