<svg width="4051" height="527" xmlns="http://www.w3.org/2000/svg" xmlns:xlink="http://www.w3.org/1999/xlink" xml:space="preserve" overflow="hidden"><defs><clipPath id="clip0"><rect x="-11" y="431" width="4051" height="527"/></clipPath></defs><g clip-path="url(#clip0)" transform="translate(11 -431)"><text fill="#9CDCFE" font-family="Arial,Arial_MSFontService,sans-serif" font-weight="400" font-size="73" transform="matrix(1 0 0 1 33 525)">"<tspan fill="#2F5597" font-size="73" x="25.7812" y="0">parserConditions</tspan>"<tspan fill="#D4D4D4" font-size="73" x="605" y="0">: [</tspan><tspan fill="#D4D4D4" font-size="73" x="767.027" y="5">{</tspan><tspan fill="#2F5597" font-size="73" x="849.527" y="93">"op1": </tspan><tspan fill="#CE9178" font-size="73" x="1064.37" y="93">"prefix"</tspan><tspan fill="#D4D4D4" font-size="73" x="1295.26" y="93">,</tspan><tspan fill="#2F5597" font-size="73" x="849.527" y="181">"compare": </tspan><tspan fill="#CE9178" font-size="73" x="1227.65" y="181">"="</tspan><tspan fill="#D4D4D4" font-size="73" x="1322.18" y="181">,</tspan><tspan fill="#2F5597" font-size="73" x="849.527" y="269">"op2": </tspan><tspan fill="#CE9178" font-size="73" x="1064.37" y="269">"</tspan><tspan fill="#CE9178" font-size="73" x="1090.15" y="269">sqlserver</tspan><tspan fill="#CE9178" font-size="73" x="1387.5" y="269">"</tspan><tspan fill="#D4D4D4" font-size="73" x="767.027" y="357">},</tspan><tspan fill="#D4D4D4" font-size="73" x="1650" y="20">{</tspan><tspan fill="#2F5597" font-size="73" x="1732.5" y="108">"op1": </tspan><tspan fill="#CE9178" font-size="73" x="1947.34" y="108">"</tspan><tspan fill="#CE9178" font-size="73" x="1973.13" y="108">nameSpcBodyParts</tspan><tspan fill="#CE9178" font-size="73" x="2620.52" y="108">[0]"</tspan><tspan fill="#D4D4D4" font-size="73" x="2728.23" y="108">,</tspan><tspan fill="#2F5597" font-size="73" x="1732.5" y="196">"compare": </tspan><tspan fill="#CE9178" font-size="73" x="2110.63" y="196">"contains"</tspan><tspan fill="#D4D4D4" font-size="73" x="2434.9" y="196">,</tspan><tspan fill="#2F5597" font-size="73" x="1732.5" y="284">"op2": </tspan><tspan fill="#CE9178" font-size="73" x="1947.34" y="284">"</tspan><tspan fill="#CE9178" font-size="73" x="1973.13" y="284">azuresynapse</tspan><tspan fill="#CE9178" font-size="73" x="2429.17" y="284">"</tspan><tspan fill="#D4D4D4" font-size="73" x="1650" y="372">},</tspan><tspan fill="#D4D4D4" font-size="73" x="2901.62" y="20">{</tspan><tspan fill="#2F5597" font-size="73" x="2984.12" y="108">"op1": </tspan><tspan fill="#CE9178" font-size="73" x="3198.97" y="108">"</tspan><tspan fill="#CE9178" font-size="73" x="3224.75" y="108">nameGroups</tspan><tspan fill="#CE9178" font-size="73" x="3648.71" y="108">[0].parts"</tspan><tspan fill="#D4D4D4" font-size="73" x="3940.32" y="108">,</tspan><tspan fill="#2F5597" font-size="73" x="2984.12" y="196">"compare": </tspan><tspan fill="#CE9178" font-size="73" x="3362.25" y="196">"&gt;"</tspan><tspan fill="#D4D4D4" font-size="73" x="3456.78" y="196">,</tspan><tspan fill="#2F5597" font-size="73" x="2984.12" y="284">"op2": </tspan><tspan fill="#CE9178" font-size="73" x="3198.97" y="284">"1"</tspan><tspan fill="#D4D4D4" font-size="73" x="2901.62" y="372">}</tspan></text></g></svg>