<svg width="4401" height="603" xmlns="http://www.w3.org/2000/svg" xmlns:xlink="http://www.w3.org/1999/xlink" xml:space="preserve" overflow="hidden"><defs><clipPath id="clip0"><rect x="-1" y="1634" width="4401" height="603"/></clipPath></defs><g clip-path="url(#clip0)" transform="translate(1 -1634)"><text fill="#9CDCFE" font-family="Arial,Arial_MSFontService,sans-serif" font-weight="400" font-size="69" transform="matrix(1 0 0 1 86.5135 1722)">"<tspan fill="#2F5597" font-size="69" x="24.6354" y="0">qualifiedName</tspan><tspan font-size="69" x="465.781" y="0">"</tspan><tspan fill="#D4D4D4" font-size="69" x="490.417" y="0">: </tspan><tspan fill="#CE9178" font-size="69" x="528.229" y="0">"</tspan><tspan fill="#CE9178" font-size="69" x="552.865" y="0">mssql</tspan><tspan fill="#CE9178" font-size="69" x="732.76" y="0">://{</tspan><tspan fill="#CE9178" font-size="69" x="812.396" y="0">nameSpcBodyParts</tspan><tspan fill="#CE9178" font-size="69" x="1420.83" y="0">[0]}/{</tspan><tspan fill="#CE9178" font-size="69" x="1561.77" y="0">nameSpcNameVals</tspan><tspan fill="#CE9178" font-size="69" x="2165.67" y="0">['database']}/{</tspan><tspan fill="#CE9178" font-size="69" x="2578.17" y="0">nameGroups</tspan><tspan fill="#CE9178" font-size="69" x="2976.35" y="0">[0].parts[0]}/{</tspan><tspan fill="#CE9178" font-size="69" x="3365.36" y="0">nameGroups</tspan><tspan fill="#CE9178" font-size="69" x="3763.54" y="0">[0].parts[1]}"</tspan><tspan fill="#D4D4D4" font-size="69" x="4135.36" y="0">,</tspan><tspan font-size="69" x="0" y="82">"</tspan><tspan fill="#2F5597" font-size="69" x="24.6354" y="82">purviewDataType</tspan><tspan font-size="69" x="557.081" y="82">"</tspan><tspan fill="#D4D4D4" font-size="69" x="581.717" y="82">: </tspan><tspan fill="#CE9178" font-size="69" x="619.529" y="82">"</tspan><tspan fill="#CE9178" font-size="69" x="644.165" y="82">azure_synapse_dedicated_sql_table</tspan><tspan fill="#CE9178" font-size="69" x="1763.64" y="82">"</tspan><tspan fill="#D4D4D4" font-size="69" x="1788.28" y="82">,</tspan><tspan fill="#7030A0" font-family="Calibri,Calibri_MSFontService,sans-serif" font-size="110" x="-20.8109" y="420">"</tspan><tspan fill="#7030A0" font-family="Calibri,Calibri_MSFontService,sans-serif" font-size="110" x="23.3037" y="420">QualifiedName</tspan><tspan fill="#7030A0" font-family="Calibri,Calibri_MSFontService,sans-serif" font-size="110" x="696.481" y="420">":"</tspan><tspan fill="#7030A0" font-family="Calibri,Calibri_MSFontService,sans-serif" font-size="110" x="813.929" y="420">mssql</tspan><tspan fill="#7030A0" font-family="Calibri,Calibri_MSFontService,sans-serif" font-size="110" x="1070.6" y="420">://purviewadbsynapsews.sql.azuresynapse.net/SQLPool1/sales/region"</tspan></text></g></svg>